<?xml version="1.0" standalone="no"?>
<!DOCTYPE svg PUBLIC "-//W3C//DTD SVG 1.1//EN" "http://www.w3.org/Graphics/SVG/1.1/DTD/svg11.dtd" >
<!--
2013-9-30: Created.
-->
<svg>
<metadata>
Created by iconfont
</metadata>
<defs>

<font id="iconfont" horiz-adv-x="1024" >
  <font-face
    font-family="iconfont"
    font-weight="500"
    font-stretch="normal"
    units-per-em="1024"
    ascent="896"
    descent="-128"
  />
    <missing-glyph />
    
    <glyph glyph-name="x" unicode="x" horiz-adv-x="1001"
d="M281 543q-27 -1 -53 -1h-83q-18 0 -36.5 -6t-32.5 -18.5t-23 -32t-9 -45.5v-76h912v41q0 16 -0.5 30t-0.5 18q0 13 -5 29t-17 29.5t-31.5 22.5t-49.5 9h-133v-97h-438v97zM955 310v-52q0 -23 0.5 -52t0.5 -58t-10.5 -47.5t-26 -30t-33 -16t-31.5 -4.5q-14 -1 -29.5 -0.5
t-29.5 0.5h-32l-45 128h-439l-44 -128h-29h-34q-20 0 -45 1q-25 0 -41 9.5t-25.5 23t-13.5 29.5t-4 30v167h911zM163 247q-12 0 -21 -8.5t-9 -21.5t9 -21.5t21 -8.5q13 0 22 8.5t9 21.5t-9 21.5t-22 8.5zM316 123q-8 -26 -14 -48q-5 -19 -10.5 -37t-7.5 -25t-3 -15t1 -14.5
t9.5 -10.5t21.5 -4h37h67h81h80h64h36q23 0 34 12t2 38q-5 13 -9.5 30.5t-9.5 34.5q-5 19 -11 39h-368zM336 498v228q0 11 2.5 23t10 21.5t20.5 15.5t34 6h188q31 0 51.5 -14.5t20.5 -52.5v-227h-327z" />
    

    
    <glyph glyph-name="play" unicode="&#58881;" d="M511.5 808C231.216 808 4 580.784 4 300.5S231.216-207 511.5-207 1019 20.216 1019 300.5 791.784 808 511.5 808zM511.5-111.844c-227.73 0-412.344 184.614-412.344 412.344S283.77 712.844 511.5 712.844s412.344-184.614 412.344-412.344S739.23-111.844 511.5-111.844zM384.624 522.532 765.25 300.5 384.624 78.468 384.624 522.532z"  horiz-adv-x="1024" />

    
    <glyph glyph-name="airplay" unicode="&#58984;" d="M170.65984 810.65984l682.65984 0q53.00224 0 90.50112-37.49888t37.49888-90.50112l0-426.65984q0-53.00224-37.49888-90.50112t-90.50112-37.49888l-106.65984 0-64 85.34016 170.65984 0q17.67424 0 30.16704 12.4928t12.4928 30.16704l0 426.65984q0 17.67424-12.4928 30.16704t-30.16704 12.4928l-682.65984 0q-17.67424 0-30.16704-12.4928t-12.4928-30.16704l0-426.65984q0-17.67424 12.4928-30.16704t30.16704-12.4928l170.65984 0-64-85.34016-106.65984 0q-53.00224 0-90.50112 37.49888t-37.49888 90.50112l0 426.65984q0 53.00224 37.49888 90.50112t90.50112 37.49888zM597.34016 42.65984l-85.34016 113.664-85.34016-113.664 170.65984 0zM256-42.65984l256 341.34016 256-341.34016-512 0z"  horiz-adv-x="1024" />

    
    <glyph glyph-name="fenxiang" unicode="&#58880;" d="M379.12482702 382.17438548999996l367.65643435 355.41154361c21.67800946 20.95381845 21.67800946 54.92445525 0 75.84450788-21.67917341 20.95381845-56.78732743 20.95381845-78.46650084 0L261.40644693 420.07801059c-21.67800946-20.95381845-21.67800946-54.92445525 0-75.84450787l406.90714966-393.31633266c10.83842219-10.47632669 25.04515129-15.69702571 39.2507153-15.69702571 14.20556402 0 28.41229198 5.22069902 39.21578553 15.73428338 21.67800946 20.95381845 21.67800946 54.88952547 0 75.84450788L379.12482702 382.17438548999996z"  horiz-adv-x="1024" />

    
    <glyph glyph-name="zongyi" unicode="&#58901;" d="M512 828.288c244.992 0 444.288-199.296 444.288-444.288S756.992-60.28800000000001 512-60.28800000000001 67.712 139.00800000000004 67.712 384 267.008 828.288 512 828.288M512 896C229.248 896 0 666.752 0 384c0-282.752 229.248-512 512-512 282.752 0 512 229.248 512 512C1024 666.752 794.752 896 512 896L512 896zM353.792 125.12c-6.336 0-12.672 1.856-18.176 5.696-11.456 7.872-16.448 22.336-12.416 35.648l54.08 178.176L236.288 454.784C225.536 463.232 221.312 477.504 225.728 490.432 230.208 503.36 242.368 512 256 512l171.904 0 53.504 174.72c8.256 26.88 52.928 26.88 61.184 0L596.096 512 768 512c13.632 0 25.792-8.64 30.272-21.568s0.256-27.2-10.496-35.648l-140.992-110.336 54.144-177.344c4.032-13.312-0.96-27.712-12.352-35.648s-26.688-7.616-37.76 0.96l-138.688 106.496L373.312 131.84000000000003C367.616 127.36000000000001 360.704 125.12 353.792 125.12zM348.864 448L433.92 381.504c10.432-8.128 14.72-21.888 10.88-34.496l-31.36-103.296L492.416 304.64C503.936 313.472 520 313.6 531.52 304.70399999999995l78.976-60.608-31.36 102.72c-3.84 12.672 0.512 26.368 10.88 34.56L675.2 448 572.416 448c-14.08 0-26.496 9.216-30.592 22.656L512 568.0640000000001 482.176 470.656C478.016 457.216 465.6 448 451.584 448L348.864 448z"  horiz-adv-x="1024" />

    
    <glyph glyph-name="tv" unicode="&#58924;" d="M981.188 607.892c-88.808 12.768-183.382 22.016-282.076 27.22l164.888 164.888-64 64-224.558-224.556c-21.006 0.368-42.156 0.556-63.442 0.556l0 0-256 256-64-64 194.196-194.196c-120.922-4.242-236.338-14.524-343.386-29.912-27.532-107.726-42.81-226.752-42.81-351.892s15.278-244.166 42.804-351.89c143.642-20.652 302.34-32.11 469.196-32.11s325.55 11.458 469.188 32.11c27.534 107.724 42.812 226.75 42.812 351.89s-15.278 244.166-42.812 351.892zM863.892 21.406c-107.73-13.766-226.75-21.406-351.892-21.406s-244.166 7.64-351.892 21.406c-20.648 71.816-32.108 151.166-32.108 234.594s11.458 162.78 32.108 234.596c107.726 13.766 226.75 21.404 351.892 21.404 125.136 0 244.162-7.638 351.886-21.404 20.656-71.816 32.114-151.166 32.114-234.596 0-83.428-11.458-162.778-32.108-234.594z"  horiz-adv-x="1024" />

    
    <glyph glyph-name="delete" unicode="&#58916;" d="M779.95324-62.62199 243.998665-62.62199c-98.623181 0-178.709171 79.953983-178.709171 178.665169L65.289494 652.043802c0 98.623181 80.08599 178.579211 178.709171 178.579211l535.954575 0c98.755188 0 178.75522-79.95603 178.75522-178.579211l0-536.000624C958.70846 17.331993 878.708428-62.62199 779.95324-62.62199L779.95324-62.62199zM869.286848 607.288482c0 74.067926-59.932997 134.044926-133.954875 134.044926L288.623002 741.333408c-73.979922 0-133.912919-59.977-133.912919-134.044926L154.710083 160.710494c0-73.979922 59.932997-134.086881 133.912919-134.086881l446.708971 0c74.021877 0 133.954875 60.106959 133.954875 134.086881L869.286848 607.288482 869.286848 607.288482zM630.948601 204.852854l-118.949113 118.951159L393.048329 204.852854l-59.366086 59.498092 118.863155 118.90818L333.682243 502.077256l59.366086 59.498092 118.951159-118.951159 118.949113 118.951159 59.45409-59.498092-118.949113-118.819153 118.949113-118.90818L630.948601 204.852854 630.948601 204.852854z"  horiz-adv-x="1024" />

    
    <glyph glyph-name="zuixiaohua" unicode="&#58892;" d="M18.92570226 451.196259l976.44536035 0 0-180.12110166-976.44536035 0 0 180.12110166Z"  horiz-adv-x="1024" />

    
    <glyph glyph-name="pause" unicode="&#59346;" d="M512 896C229.216 896 0 666.784 0 384s229.216-512 512-512 512 229.216 512 512S794.784 896 512 896zM512-32c-229.76 0-416 186.24-416 416S282.24 800 512 800s416-186.24 416-416S741.76-32 512-32zM320 576 448 576 448 192 320 192zM576 576 704 576 704 192 576 192z"  horiz-adv-x="1024" />

    
    <glyph glyph-name="search1" unicode="&#58985;" d="M937.541883-41.540859c-18.006096-18.006096-47.196928-18.006096-65.202001 0l-65.199954 65.199954c-18.004049 18.008142-18.004049 47.196928 0 65.202001 18.006096 18.004049 47.196928 18.004049 65.199954 0l65.202001-65.202001C955.544909 5.658116 955.544909-23.53681 937.541883-41.540859zM187.734732 154.061051c-153.039535 153.039535-153.039535 401.165706 0 554.204218s401.165706 153.039535 554.204218 0 153.039535-401.165706 0-554.204218C588.900438 1.019469 340.774267 1.019469 187.734732 154.061051zM676.738995 643.066337c-117.03246 117.02939-306.774919 117.02939-423.804309 0-117.030413-117.03246-117.030413-306.772872 0-423.804309 117.030413-117.030413 306.772872-117.030413 423.804309 0C793.769408 336.293465 793.769408 526.033877 676.738995 643.066337z"  horiz-adv-x="1024" />

    
    <glyph glyph-name="homeuizqdianying" unicode="&#58914;" d="M794.6496 412.8768c-6.6304 74.3424-95.9488 105.7024-147.0976 52.9152l-17.4592-18.0224c-33.7152-34.7904-33.7152-91.2128 2.9952-129.1264l14.5152-14.976c51.1744-52.8384 140.6208-21.376 147.1232 53.0432C796.3392 375.3984 796.3136 394.1888 794.6496 412.8768zM437.4528 520.6016c33.7408-34.8416 88.4736-34.8416 122.2144 0l17.408 17.9456c51.1488 52.7872 20.7616 144.9984-51.2768 151.8336-18.0992 1.7152-36.3008 1.7408-54.4 0.0512-72.0896-6.6816-102.5792-99.0208-51.4048-151.8592L437.4528 520.6016zM201.1904 413.0048c-1.7408-18.7904-1.8176-37.7088-0.2048-56.4992 6.3488-74.9824 95.6416-107.4688 147.1744-54.2464l18.7648 19.3536c33.7152 34.7904 33.7152 91.2128-3.1488 129.28l-15.4112 15.9232C296.9344 519.9104 208.1024 487.7312 201.1904 413.0048zM471.1936 77.568c18.2016-1.6384 36.5312-1.5616 54.7328 0.2304 72.3968 7.1424 103.5776 98.816 52.1472 151.8848l-18.5088 19.1232c-33.7408 34.8416-88.4736 34.8416-122.2144 0l-18.688-19.3024C367.104 176.2816 398.5664 84.1216 471.1936 77.568zM960.896-27.4944c-33.8432 0-77.2864 5.2224-92.0832 30.1056-17.408 29.2608 4.1472 82.7136 12.6464 98.3552 46.464 80.2816 75.264 142.5664 84.8896 223.3856 2.6368 22.272 3.8656 41.216 3.8656 59.6224 0 19.0208-1.3312 38.656-4.1984 61.824-27.1616 219.8528-195.2768 392.6784-408.8064 420.2752-44.4672 5.7344-74.0608 5.7344-118.5024 0-213.5296-27.6224-381.6448-200.4224-408.8064-420.3008-2.8672-23.2704-4.1984-42.9056-4.1984-61.7984 0-18.2272 1.28-37.7344 3.8912-59.6224 26.2912-221.0048 194.5344-394.7264 409.1136-422.4768 44.3136-5.7344 74.1376-5.7344 118.528 0 53.7088 6.9376 105.3952 23.2192 153.6512 48.3584 18.304 9.5488 25.4208 32.128 15.872 50.4576-9.5232 18.304-32.1024 25.472-50.4576 15.872-40.4224-21.0432-83.712-34.688-128.6656-40.4992-37.8368-4.8896-61.5168-4.8896-99.328 0-180.5312 23.3216-322.176 170.1888-344.4224 357.1456-2.2784 19.2-3.3536 35.328-3.3536 50.7648 0 15.7696 1.152 32.512 3.6352 52.6592 22.9888 185.9328 164.5056 332.032 344.1152 355.2512 37.9136 4.8896 61.4656 4.8896 99.3536 0 179.6352-23.2192 321.152-169.3184 344.1408-355.2512 2.4832-20.0448 3.6352-36.7872 3.6352-52.6592 0-15.3856-1.0752-31.5392-3.3536-50.7904-8.1152-68.0192-33.7664-122.9312-75.7504-195.4304-5.6576-10.24-53.9392-102.0672-11.9808-173.1072 26.24-44.4416 78.9248-66.9696 156.5696-66.9696 20.6592 0 37.4016 16.7424 37.4016 37.4016S981.5552-27.4944 960.896-27.4944z"  horiz-adv-x="1024" />

    
    <glyph glyph-name="refresh" unicode="&#59704;" d="M914.92503666 335.45481443000006M463.45481443-52.90666667000005c-242.72592555 0-436.90666667 194.18074112-436.90666666 436.90666667 0 116.50844445 43.69066667 228.16236999 126.2174811 310.68918557C235.29244445 777.216 346.94636999 820.90666667 463.45481443 820.90666667c242.72592555 0 436.90666667-194.18074112 436.90666667-436.90666667 0-29.12711111-19.41807445-48.54518557-48.54518556-48.54518557s-48.54518557 19.41807445-48.54518557 48.54518557c0 189.32622222-150.49007445 339.81629667-339.81629667 339.81629667C371.21896334 723.81629667 288.69214777 689.8346666699999 220.72888889 626.72592555c-63.10874112-63.10874112-97.09036999-150.49007445-97.09036999-242.72592555 0-189.32622222 150.49007445-339.81629667 339.81629667-339.81629667 92.23585223 0 174.76266667 33.98163001 242.72592555 97.09036998 19.41807445 19.41807445 48.54518557 19.41807445 67.96325888 0 19.41807445-19.41807445 19.41807445-48.54518557 0-67.96325888C691.61718557-9.216000000000008 579.96325888-52.90666667000005 463.45481443-52.90666667000005zM851.81629667 335.45481443000006c-9.70903666 0-19.41807445 4.8545189-29.1271111 9.70903666L657.63555555 466.52681443c-19.41807445 14.56355555-24.27259221 48.54518557-9.70903665 67.96325888 14.56355555 19.41807445 43.69066667 24.27259221 67.96325888 9.70903666l165.05363001-121.36296334c19.41807445-14.56355555 24.27259221-48.54518557 9.70903666-67.96325888C880.94340779 340.30933332999996 866.37985223 335.45481443000006 851.81629667 335.45481443000006zM851.81629667 335.45481443000006c-9.70903666 0-19.41807445 4.8545189-29.1271111 9.70903666-19.41807445 14.56355555-24.27259221 48.54518557-9.70903666 67.96325888L934.34311111 578.18074112c14.56355555 19.41807445 48.54518557 24.27259221 67.96325888 9.70903666 19.41807445-14.56355555 24.27259221-48.54518557 9.70903666-67.96325888l-121.36296334-165.05363001C880.94340779 340.30933332999996 866.37985223 335.45481443000006 851.81629667 335.45481443000006z"  horiz-adv-x="1024" />

    
    <glyph glyph-name="home" unicode="&#59188;" d="M863.08571413 325.48571413l0-292.57142826q0-15.8476192-11.58095253-27.42857174t-27.42857173-11.58095253l-234.0571424 0 0 234.0571424-156.03809494 0 0-234.0571424-234.0571424 0q-15.8476192 0-27.42857173 11.58095253t-11.58095253 27.42857174l0 292.57142826q0 0.60952427 3.0476192 1.82857174t3.0476192 1.82857173l350.47619093 288.91428587 350.47619093-288.91428587q0.60952427-1.21904747 0.60952427-3.6571424z m135.92380907 42.0571424l-37.79047573-45.1047616q-4.87619093-5.48571413-12.8-6.7047616l-1.82857174 0q-7.92380907 0-12.8 4.26666667l-421.79047573 351.6952384-421.79047573-351.6952384q-7.31428587-4.87619093-14.62857174-4.26666667-7.92380907 1.21904747-12.8 6.7047616l-37.79047573 45.1047616q-4.87619093 6.0952384-4.26666667 14.32380907t6.7047616 13.1047616l438.2476192 365.1047616q19.5047616 15.8476192 46.32380907 15.8476192t46.32380907-15.8476192l148.72380906-124.3428576 0 118.8571424q0 8.53333333 5.48571414 14.01904747t14.01904746 5.48571413l117.02857174 0q8.53333333 0 14.01904746-5.48571413t5.48571414-14.01904747l0-248.68571413 133.48571413-110.93333334q6.0952384-4.87619093 6.7047616-13.1047616t-4.26666667-14.32380906z"  horiz-adv-x="1024" />

    
    <glyph glyph-name="close" unicode="&#59074;" d="M997.7107595 44.57206517999998L658.02391703 385.55344592l340.46356544 336.57995061c13.98101333 13.98101333 13.98101333 36.76488691 0 50.74590027l-96.83146272 97.34927802c-6.73159902 6.73159902-15.79336691 10.35630617-25.37295012 10.35630616-9.5795832 0-18.64135111-3.88361482-25.37295013-10.35630616L512 534.68425482 172.57206518 869.96966717c-6.73159902 6.73159902-15.79336691 10.35630617-25.37295012 10.35630616-9.5795832 0-18.64135111-3.88361482-25.37295012-10.35630616L25.25360987 772.62038914c-13.98101333-13.98101333-13.98101333-36.76488691 0-50.74590025l340.46356544-336.57995062L26.2892405 44.57206517999998c-6.73159902-6.73159902-10.61521383-15.79336691-10.61521383-25.37295012 0-9.5795832 3.62470717-18.64135111 10.61521383-25.37295012l96.8314627-97.34927803c6.99050667-6.99050667 16.05227457-10.61521383 25.37295013-10.61521382 9.0617679 0 18.38244347 3.3657995 25.37295014 10.61521382L512 236.16372938999996l338.39230419-339.42793482c6.99050667-6.99050667 16.05227457-10.61521383 25.37295012-10.61521382 9.0617679 0 18.38244347 3.3657995 25.37295014 10.61521382l96.83146272 97.34927802c6.73159902 6.73159902 10.61521383 15.79336691 10.61521381 25.37295013C1008.32597333 28.77869826999995 1004.44235852 37.84046617000001 997.7107595 44.57206517999998z"  horiz-adv-x="1024" />

    
    <glyph glyph-name="weibiaoti2fuzhi06" unicode="&#58900;" d="M759.58044445 449.536c-21.84533333 0-36.40888889 14.56355555-36.4088889 36.40888889 0 21.84533333 14.56355555 36.40888889 36.4088889 36.40888889 21.84533333 0 36.40888889-14.56355555 36.40888888-36.40888889C803.27111111 464.09955555 781.42577778 449.536 759.58044445 449.536M978.03377778 398.56355555c0-7.28177778 0-7.28177778 0-14.56355555 0-138.35377778-58.25422222-262.144-152.91733333-349.52533333 14.56355555 65.536 43.69066667 225.73511111 0 393.216 14.56355555 14.56355555 21.84533333 29.12711111 21.84533333 43.69066666C876.08888889 471.38133333 934.34311111 449.536 978.03377778 398.56355555zM897.93422222 638.8622222199999c36.40888889-58.25422222 58.25422222-116.50844445 72.81777778-182.04444444-21.84533333 21.84533333-72.81777778 58.25422222-138.35377778 65.536 0 7.28177778-7.28177778 14.56355555-7.28177777 14.56355555C868.80711111 566.04444445 890.65244445 617.01688889 897.93422222 638.8622222199999zM577.536 842.752c116.50844445-14.56355555 225.73511111-80.09955555 298.55288889-167.48088889-21.84533333-65.536-58.25422222-101.94488889-72.81777778-116.50844444-7.28177778 7.28177778-21.84533333 7.28177778-29.12711111 7.28177778C730.45333333 718.96177778 628.50844445 806.34311111 577.536 842.752zM512-82.03377778000004c-94.66311111 0-189.32622222 29.12711111-262.144 80.09955556 58.25422222 36.40888889 342.24355555 196.608 480.59733333 415.06133333 7.28177778-7.28177778 21.84533333-7.28177778 36.40888889-7.28177778 7.28177778 0 14.56355555 0 14.56355556 0 21.84533333-65.536 65.536-247.58044445-14.56355556-415.06133333C694.04444445-52.90666667000005 606.66311111-82.03377778000004 512-82.03377778000004zM694.04444445 529.6355555499999C628.50844445 558.76266667 380.928 638.8622222199999 67.81155555 515.072c58.25422222 182.04444445 225.73511111 320.39822222 422.34311112 334.96177778 160.19911111-72.81777778 225.73511111-225.73511111 240.29866666-283.98933333C715.88977778 558.76266667 701.32622222 544.19911111 694.04444445 529.6355555499999zM53.248 471.38133333C96.93866667 493.22666667 329.95555555 602.4533333300001 686.76266667 500.50844445c0-7.28177778 0-7.28177778 0-14.56355556 0-21.84533333 7.28177778-36.40888889 21.84533333-50.97244444-36.40888889-50.97244445-167.48088889-225.73511111-487.87911111-407.77955556C111.50222222 107.29244444999995 45.96622222 238.36444444999995 45.96622222 384 45.96622222 413.12711111 45.96622222 442.25422222 53.248 471.38133333zM512 893.72444445C228.01066667 893.72444445 2.27555555 667.98933333 2.27555555 384c0-283.98933333 225.73511111-509.72444445 509.72444445-509.72444445 283.98933333 0 509.72444445 225.73511111 509.72444445 509.72444445C1021.72444445 667.98933333 795.98933333 893.72444445 512 893.72444445z"  horiz-adv-x="1024" />

    
    <glyph glyph-name="wenjianjia1" unicode="&#59306;" d="M958.473611 51.759083c0 0 0 509.912455 0 560.039109 0 68.029396-61.916165 61.654198-61.916165 61.654198s-369.837186-0.436952-350.275665 0c-21.221324-0.436952-31.699979 11.090593-31.699979 11.090593s-14.758122 25.325805-41.218774 65.408709c-27.770484 42.004673-59.907415 35.106566-59.907415 35.106566L140.9021 785.058259c-75.53944 0-76.41232-72.65781-76.41232-72.65781s0-604.576465 0-656.886855c0-81.040734 61.217247-70.998007 61.217247-70.998007s730.330564 0 776.439718 0C967.643458-15.48339 958.473611 51.759083 958.473611 51.759083L958.473611 51.759083z"  horiz-adv-x="1024" />

    
    <glyph glyph-name="search" unicode="&#59044;" d="M984.2585056-50.96396053000001L772.9678912 160.21525440000005c30.29280747 34.16445973 54.63233707 72.68220587 72.46486933 114.84334613 21.912784 51.80914347 33.02426027 106.82919147 33.02426027 163.5322336s-11.11147627 111.72199787-33.02426027 163.5322336c-21.16029653 50.02894827-51.44764373 94.95430613-90.0221824 133.52775254-38.57235413 38.5734464-83.497712 68.8607936-133.52775253 90.02109013-51.80914347 21.912784-106.82919147 33.02426027-163.5322336 33.02426027S346.6285952 847.58469547 294.81945173 825.6719104c-50.02894827-21.16029653-94.95430613-51.44764373-133.52775253-90.02109013s-68.8607936-83.49880427-90.02109013-133.52775254c-21.912784-51.80914347-33.02426027-106.82919147-33.02426027-163.5322336s11.11147627-111.72199787 33.02426027-163.5322336c21.16029653-50.03004053 51.44764373-94.95430613 90.02109013-133.52775253 38.5734464-38.5734464 83.49880427-68.86188587 133.52775253-90.0221824 51.80914347-21.912784 106.82919147-33.02426027 163.5322336-33.02426027s111.72199787 11.11147627 163.5322336 33.02426027c41.8007328 17.67963307 80.02141653 41.75486293 113.9674464 71.68726293l211.34958934-211.23709866c5.11888107-5.11669653 11.82246293-7.6723136 18.52932053-7.6723136 6.7101344 0 13.42136213 2.56217067 18.53914987 7.68214293C994.50172693-77.79248640000003 994.49735893-61.19735252999999 984.2585056-50.96396053000001zM458.35168533 70.90733547000002c-98.21108053 0-190.54424 38.24580267-259.9904224 107.6908928s-107.69198507 161.78043413-107.69198506 259.99151466 38.24580267 190.54424 107.69198506 259.9904224 161.77934187 107.69198507 259.9904224 107.69198507 190.54533227-38.24580267 259.99151467-107.69198507 107.6908928-161.77934187 107.6908928-259.9904224-38.24580267-190.54533227-107.6908928-259.99151466S556.56276587 70.90733547000002 458.35168533 70.90733547000002z"  horiz-adv-x="1025" />

    
    <glyph glyph-name="download" unicode="&#58922;" d="M384 152H296a240 240 0 0 0 0 480h56a32 32 0 0 0 0-64h-56a176 176 0 0 1 0-352h88a32 32 0 0 0 0-64zM736 512a32 32 0 0 0-32 32v40a192 192 0 0 1-382.08 27.44 32 32 0 0 0-63.36 9.04A256 256 0 0 0 768 584v-40a32 32 0 0 0-32-32zM728 152H640a32 32 0 0 0 0 64h88a176 176 0 0 1 6.8 352 32 32 0 1 0 2.4 64A240 240 0 0 0 728 152zM512 328a32 32 0 0 0 32-32v-280a32 32 0 0 0-64 0V296a32 32 0 0 0 32 32zM512 407.92m-32 0a32 32 0 1 1 64 0 32 32 0 1 1-64 0ZM512-72a48 48 0 0 0-33.92 14L353.6 66.48A32 32 0 0 0 398.88 112L512-1.36 625.12 112a32 32 0 0 0 45.28-45.28l-124.48-124.64A48 48 0 0 0 512-72z"  horiz-adv-x="1024" />

    
    <glyph glyph-name="ic_ondemand_video" unicode="&#60029;" d="M896 768H128c-47.146667 0-85.333333-38.186667-85.333333-85.333333v-512c0-47.146667 38.186667-85.333333 85.333333-85.333334h213.333333v-85.333333h341.333334v85.333333h213.333333c47.146667 0 84.906667 38.186667 84.906667 85.333334L981.333333 682.666667c0 47.146667-38.186667 85.333333-85.333333 85.333333z m0-597.333333H128V682.666667h768v-512zM682.666667 426.666667l-298.666667-170.666667V597.333333z"  horiz-adv-x="1024" />

    
    <glyph glyph-name="shoucang" unicode="&#59303;" d="M794.944-112a53.376 53.376 0 0 0-25.344 6.4L512 31.744 254.464-105.6a54.912 54.912 0 0 0-66.752 12.928 54.4 54.4 0 0 0-12.032 44.352l49.344 291.392L16.192 449.408a54.272 54.272 0 0 0-13.44 55.872 54.016 54.016 0 0 0 43.584 36.864l288.128 42.432L463.36 849.472c18.304 37.696 78.976 37.696 97.344 0l128.96-264.896 288.064-42.432c20.416-3.008 37.12-17.152 43.584-36.864a54.4 54.4 0 0 0-13.44-55.936l-208.768-206.336 49.344-291.456a54.4 54.4 0 0 0-53.504-63.552zM74.688 481.6l198.784-196.48a54.592 54.592 0 0 0 15.424-47.872l-47.104-278.4 244.864 131.904a54.976 54.976 0 0 0 50.688 0l244.672-130.432-46.848 276.864a54.4 54.4 0 0 0 15.552 48.064l198.656 196.352-274.304 40.384a54.016 54.016 0 0 0-40.832 30.08L512 803.2 389.76 552a54.144 54.144 0 0 0-40.832-29.952l-274.24-40.448z"  horiz-adv-x="1024" />

    
    <glyph glyph-name="wenjianjia" unicode="&#58955;" d="M862.3390425492543 651.4885931665383c-14.202934734696294 0-23.671556596622217-9.468623156464194-23.671556596622217-23.671556596622217s9.468623156464194-23.671556596622217 23.671556596622217-23.671556596622217c26.038713033007408 0 47.34311448778271-21.304401454775306 47.34311448778271-47.34311448778271v-82.85044938271605H111.95068782111605v175.16952192189632c0 26.038713033007408 21.304401454775306 47.34311448778271 47.343113193244434 47.34311448778271h168.0680552018173c11.835778298311109 0 23.671556596622217-2.3671551418469137 35.50733489493333-9.468623156464194l132.5607190123457-75.74898266263703c9.468623156464194-7.10146672007901 23.671556596622217-9.468623156464194 35.50733489493333-9.468623156464194h210.67685811136792c14.202934734696294 0 23.671556596622217 9.468623156464194 23.671556596622217 23.67155789116049s-9.468623156464194 23.671556596622217-23.671556596622217 23.671556596622217h-210.67685811136792c-4.734311578232097 0-7.10146672007901 0-11.835778298311109 2.3671551418469137l-132.5607190123457 75.74898266263703c-16.57008987654321 9.468623156464194-37.87449133131852 16.57008987654321-59.17889149155555 16.57008987654321h-168.0680552018173c-52.07742477147655 0-94.68622768102715-42.60880290955061-94.68622768102715-94.68622768102715v-563.3830558024691c0-52.07742477147655 42.60880290955061-94.68622768102715 94.68622768102715-94.68622768102715h703.0452415348939c52.07742477147655 0 94.68622768102715 42.60880290955061 94.68622897556541 94.68622768102715V556.802365485511c0 52.07742477147655-42.60880290955061 94.68622768102715-94.68622897556541 94.68622768102715z m47.34311448778271-563.3830558024691c0-26.038713033007408-21.304401454775306-47.34311448778271-47.34311448778271-47.343113193244434H159.2938010143605c-26.038713033007408 0-47.34311448778271 21.304401454775306-47.343113193244434 47.343113193244434V428.9759580513976h795.3643140740738v-340.87042068732825z"  horiz-adv-x="1024" />

    
    <glyph glyph-name="fenlei" unicode="&#58972;" d="M469.60818673 856.1094774000001H37.95734545v-431.23658905h431.65084128V856.1094774000001z m-63.51867786-367.71791118H101.47602331V792.59079954h304.61348556v-304.19923332zM37.95734545-89.21415006999996h432.06509352V342.16052305999995H37.95734545v-431.37467313z m63.51867786 367.85599526h305.02773781v-304.33731738H101.47602331V278.64184519zM553.97756103 857.62840231v-431.78892537h432.06509352V857.62840231H553.97756103z m368.54641566-368.2702475H617.49623888V794.10972445h305.02773781v-304.75156964zM555.49648592-89.62840230999996h430.40808455V342.02243897000005H555.49648592V-89.62840230999996z m63.51867787 368.13216343h303.37072881V-26.109724450000044H619.01516379V278.50376112000004z"  horiz-adv-x="1024" />

    


  </font>
</defs>
</svg>
